<?xml version="1.0" encoding="utf-8"?>
<!-- Generator: Adobe Illustrator 23.0.3, SVG Export Plug-In . SVG Version: 6.00 Build 0)  -->
<svg version="1.1" id="Layer_1" xmlns="http://www.w3.org/2000/svg" xmlns:xlink="http://www.w3.org/1999/xlink" x="0px" y="0px"
	 viewBox="0 0 100 82.2" style="enable-background:new 0 0 100 82.2;" xml:space="preserve">
<style type="text/css">
	.st0{fill:#044366;}
	.st1{fill:#EEF0F3;}
</style>
<g>
	<g>
		<rect class="st0" width="100" height="82.2"/>
		<polygon class="st1" points="29.9,68.3 14.3,68.3 25.1,20.7 13,20.7 13,17 29.4,17 18.6,64.6 29.9,64.6 		"/>
		<rect x="34.4" y="17" class="st1" width="3.3" height="51.3"/>
		<path class="st1" d="M47.5,20.6c2.7,0.3,5,1.1,6.8,2.2s3.4,2.8,4.7,5.1c1.8,3,2.7,6.3,2.7,9.7c0,2.6-0.5,5.1-1.6,7.5
			c-1,2.2-2.3,4.1-4,5.6c-1.3,1.1-2.6,1.9-3.8,2.5c-1.2,0.5-2.8,0.9-4.7,1.1L47.5,20.6L47.5,20.6z M52.3,56.8
			c2.9-1.3,5.2-2.8,6.9-4.6C63,48,64.9,43,64.9,37.3c0-3.1-0.6-6-1.8-8.8c-1.5-3.3-3.5-5.9-6.1-7.9c-3-2.3-6.5-3.5-10.3-3.5h-2.5
			v51.3h3.3V57.1l11.7,11.2h5.3L52.3,56.8z"/>
		<path class="st1" d="M73.3,32.4v-7.5c0-1.5,0.4-2.7,1.1-3.5c0.7-0.9,1.7-1.3,2.9-1.3c1.1,0,2,0.4,2.6,1.3c0.7,0.9,1,2.1,1,3.5v7.5
			H73.3z M84.3,26.2c0-1.8-0.1-3.2-0.3-4.1c-0.2-0.9-0.5-1.8-1-2.6c-1.3-2.1-3.3-3.2-5.8-3.2c-2.2,0-4.1,0.9-5.4,2.7
			c-0.7,0.8-1.1,1.7-1.3,2.8c-0.2,1-0.4,2.6-0.4,4.7v5.9h-2.8l1.1,3.7H70v32.2h3.3V36.1H81v32.2h3.3V26.2z"/>
	</g>
	<g>
		<path class="st1" d="M93,13c0,0.8-0.3,1.4-0.8,2c-0.6,0.6-1.2,0.8-2,0.8s-1.4-0.3-2-0.8c-0.6-0.6-0.8-1.2-0.8-2s0.3-1.4,0.8-2
			c0.6-0.6,1.2-0.8,2-0.8s1.4,0.3,2,0.8S93,12.3,93,13z M92.6,13c0-0.7-0.2-1.2-0.7-1.7s-1-0.7-1.7-0.7s-1.2,0.2-1.7,0.7
			s-0.7,1-0.7,1.7s0.2,1.2,0.7,1.7s1,0.7,1.7,0.7s1.2-0.2,1.7-0.7C92.4,14.3,92.6,13.7,92.6,13z M91.5,14.7H91l-0.6-1.4h-0.9v1.4H89
			v-3.3h1.4c0.4,0,0.7,0.1,0.8,0.3c0.2,0.2,0.3,0.4,0.3,0.6c0,0.2-0.1,0.3-0.2,0.5s-0.3,0.3-0.5,0.3L91.5,14.7z M89.5,12.9h0.8
			c0.2,0,0.4-0.1,0.5-0.2s0.2-0.2,0.2-0.4s-0.1-0.3-0.2-0.4c-0.1-0.1-0.3-0.1-0.4-0.1h-0.9V12.9z"/>
	</g>
</g>
</svg>
