<?xml version="1.0" encoding="utf-8"?>
<!-- Generator: Adobe Illustrator 23.0.3, SVG Export Plug-In . SVG Version: 6.00 Build 0)  -->
<svg version="1.1" id="Layer_1" xmlns="http://www.w3.org/2000/svg" xmlns:xlink="http://www.w3.org/1999/xlink" x="0px" y="0px"
	 viewBox="0 0 67.9 56" style="enable-background:new 0 0 67.9 56;" xml:space="preserve">
<style type="text/css">
	.st0{fill:#0F4068;}
</style>
<g>
	<g>
		<polygon class="st0" points="20.5,46.2 10.1,46.2 17.3,14.4 9.2,14.4 9.2,11.9 20.1,11.9 12.9,43.7 20.5,43.7 		"/>
	</g>
	<g>
		<rect x="23.5" y="11.9" class="st0" width="2.2" height="34.3"/>
	</g>
	<g>
		<path class="st0" d="M32.3,14.3c1.8,0.2,3.3,0.7,4.5,1.5s2.2,1.9,3.1,3.4c1.2,2,1.8,4.2,1.8,6.5c0,1.7-0.4,3.4-1.1,5
			c-0.7,1.5-1.6,2.7-2.7,3.7c-0.9,0.8-1.7,1.3-2.5,1.7s-1.9,0.6-3.1,0.7V14.3z M35.5,38.5c2-0.8,3.5-1.9,4.6-3.1
			c2.5-2.8,3.8-6.1,3.8-10c0-2.1-0.4-4-1.2-5.9c-1-2.2-2.3-4-4.1-5.3c-2-1.6-4.3-2.3-6.9-2.3H30v34.3h2.2v-7.5l7.8,7.5h3.5
			L35.5,38.5z"/>
	</g>
	<g>
		<path class="st0" d="M49.6,22.2v-5c0-1,0.3-1.8,0.8-2.4c0.5-0.6,1.1-0.9,1.9-0.9c0.7,0,1.3,0.3,1.8,0.9c0.4,0.6,0.7,1.4,0.7,2.3v5
			h-5.2V22.2z M56.9,18c0-1.2-0.1-2.1-0.2-2.8c-0.1-0.6-0.4-1.2-0.7-1.7c-0.9-1.4-2.2-2.1-3.9-2.1c-1.5,0-2.7,0.6-3.6,1.8
			c-0.4,0.6-0.7,1.2-0.9,1.8c-0.2,0.7-0.2,1.7-0.2,3.1V22h-1.9l0.7,2.5h1.2V46h2.2V24.6h5.1v21.5h2.2C56.9,46.1,56.9,18,56.9,18z"/>
	</g>
</g>
<g>
	<path class="st0" d="M63.45,9.808c0,0.493-0.185,0.863-0.493,1.232c-0.37,0.37-0.739,0.493-1.232,0.493s-0.862-0.185-1.232-0.493
		C60.123,10.671,60,10.301,60,9.808s0.185-0.863,0.493-1.232c0.37-0.37,0.739-0.493,1.232-0.493s0.863,0.185,1.232,0.493
		C63.327,8.884,63.45,9.377,63.45,9.808z M63.204,9.808c0-0.431-0.123-0.739-0.431-1.047S62.156,8.33,61.725,8.33
		c-0.431,0-0.739,0.123-1.047,0.431s-0.431,0.616-0.431,1.047s0.123,0.739,0.431,1.047s0.616,0.431,1.047,0.431
		c0.431,0,0.739-0.123,1.047-0.431C63.08,10.609,63.204,10.24,63.204,9.808z M62.526,10.856h-0.308l-0.37-0.863h-0.554v0.863h-0.308
		V8.823h0.863c0.246,0,0.431,0.062,0.493,0.185c0.123,0.123,0.185,0.246,0.185,0.37c0,0.123-0.062,0.185-0.123,0.308
		c-0.062,0.123-0.185,0.185-0.308,0.185L62.526,10.856z M61.294,9.747h0.493c0.123,0,0.246-0.062,0.308-0.123
		c0.062-0.062,0.123-0.123,0.123-0.246c0-0.123-0.062-0.185-0.123-0.246c-0.062-0.062-0.185-0.062-0.246-0.062h-0.554V9.747z"/>
</g>
</svg>
